<?xml version="1.0" standalone="yes"?>
<svg version="1.1" xmlns="http://www.w3.org/2000/svg" xmlns:xlink="http://www.w3.org/1999/xlink" xmlns:ev="http://www.w3.org/2001/xml-events" width="350" height="350">
<path style="fill:#ffffff; stroke:none;" d="M0 0L0 350L350 350L350 0L0 0z"/>
<path style="fill:#000000; stroke:none;" d="M10 10L10 80L80 80L80 10L10 10M90 10L90 30L100 30L100 40L90 40L90 80L100 80L100 40L110 40L110 50L120 50L120 60L130 60L130 80L120 80L120 70L110 70L110 120L130 120L130 130L140 130L140 140L130 140L130 150L150 150L150 160L140 160L140 170L130 170L130 160L120 160L120 130L110 130L110 170L100 170L100 140L80 140L80 130L90 130L90 120L80 120L80 110L90 110L90 100L80 100L80 90L70 90L70 100L80 100L80 110L70 110L70 120L60 120L60 140L40 140L40 160L30 160L30 150L20 150L20 140L30 140L30 130L50 130L50 110L60 110L60 100L50 100L50 90L40 90L40 110L30 110L30 130L20 130L20 140L10 140L10 170L20 170L20 160L30 160L30 180L20 180L20 190L10 190L10 220L20 220L20 230L10 230L10 240L20 240L20 250L10 250L10 260L20 260L20 250L30 250L30 260L90 260L90 270L100 270L100 300L90 300L90 310L100 310L100 320L110 320L110 310L130 310L130 290L120 290L120 280L140 280L140 300L150 300L150 310L140 310L140 320L120 320L120 330L100 330L100 340L150 340L150 330L140 330L140 320L150 320L150 310L160 310L160 340L170 340L170 330L180 330L180 320L190 320L190 330L200 330L200 340L210 340L210 330L230 330L230 340L240 340L240 330L250 330L250 340L270 340L270 310L280 310L280 340L300 340L300 320L310 320L310 310L300 310L300 300L310 300L310 290L300 290L300 270L310 270L310 280L330 280L330 290L340 290L340 280L330 280L330 270L340 270L340 260L330 260L330 250L320 250L320 260L300 260L300 250L310 250L310 230L330 230L330 240L340 240L340 220L330 220L330 210L320 210L320 220L310 220L310 230L290 230L290 240L300 240L300 250L280 250L280 230L270 230L270 220L260 220L260 210L280 210L280 200L270 200L270 190L260 190L260 210L240 210L240 240L220 240L220 230L210 230L210 220L200 220L200 230L210 230L210 240L220 240L220 250L200 250L200 240L170 240L170 230L180 230L180 220L170 220L170 210L190 210L190 200L180 200L180 190L190 190L190 180L200 180L200 190L210 190L210 200L200 200L200 210L210 210L210 200L220 200L220 220L230 220L230 200L220 200L220 190L210 190L210 170L220 170L220 180L230 180L230 170L260 170L260 160L270 160L270 180L280 180L280 160L310 160L310 150L320 150L320 170L340 170L340 160L330 160L330 150L340 150L340 130L330 130L330 150L320 150L320 140L310 140L310 150L300 150L300 140L280 140L280 130L270 130L270 120L280 120L280 100L310 100L310 110L330 110L330 120L340 120L340 90L320 90L320 100L310 100L310 90L280 90L280 100L270 100L270 120L260 120L260 90L250 90L250 80L260 80L260 30L250 30L250 20L260 20L260 10L210 10L210 20L220 20L220 30L210 30L210 40L180 40L180 30L190 30L190 20L200 20L200 10L180 10L180 20L150 20L150 30L170 30L170 40L160 40L160 50L150 50L150 60L130 60L130 30L140 30L140 10L130 10L130 20L120 20L120 30L110 30L110 20L100 20L100 10L90 10M270 10L270 80L340 80L340 10L270 10z"/>
<path style="fill:#ffffff; stroke:none;" d="M20 20L20 70L70 70L70 20L20 20M230 20L230 30L220 30L220 40L210 40L210 60L200 60L200 50L190 50L190 60L180 60L180 40L170 40L170 60L150 60L150 70L140 70L140 90L130 90L130 100L120 100L120 110L140 110L140 120L150 120L150 130L160 130L160 140L150 140L150 150L160 150L160 160L170 160L170 170L160 170L160 180L170 180L170 190L180 190L180 180L190 180L190 170L180 170L180 160L170 160L170 150L160 150L160 140L170 140L170 130L180 130L180 120L190 120L190 140L180 140L180 150L190 150L190 160L200 160L200 170L210 170L210 160L200 160L200 150L230 150L230 160L240 160L240 150L250 150L250 160L260 160L260 150L270 150L270 140L240 140L240 120L250 120L250 100L240 100L240 90L230 90L230 100L220 100L220 110L210 110L210 120L200 120L200 110L190 110L190 100L150 100L150 70L160 70L160 90L170 90L170 60L180 60L180 90L190 90L190 60L200 60L200 90L220 90L220 80L230 80L230 70L240 70L240 80L250 80L250 30L240 30L240 20L230 20M280 20L280 70L330 70L330 20L280 20z"/>
<path style="fill:#000000; stroke:none;" d="M30 30L30 60L60 60L60 30L30 30M290 30L290 60L320 60L320 30L290 30M230 40L230 50L220 50L220 60L230 60L230 50L240 50L240 40L230 40M210 70L210 80L220 80L220 70L210 70M10 100L10 120L20 120L20 100L10 100M140 100L140 110L150 110L150 100L140 100M160 110L160 130L170 130L170 120L180 120L180 110L160 110M220 110L220 120L210 120L210 130L200 130L200 140L190 140L190 150L200 150L200 140L220 140L220 120L240 120L240 110L220 110z"/>
<path style="fill:#ffffff; stroke:none;" d="M70 120L70 130L80 130L80 120L70 120z"/>
<path style="fill:#000000; stroke:none;" d="M300 120L300 130L310 130L310 120L300 120z"/>
<path style="fill:#ffffff; stroke:none;" d="M70 140L70 150L50 150L50 160L40 160L40 180L50 180L50 190L80 190L80 200L50 200L50 210L40 210L40 220L60 220L60 230L90 230L90 240L100 240L100 220L110 220L110 240L120 240L120 250L90 250L90 260L100 260L100 270L110 270L110 260L120 260L120 270L140 270L140 230L130 230L130 240L120 240L120 220L130 220L130 210L160 210L160 190L150 190L150 170L140 170L140 180L130 180L130 190L150 190L150 200L120 200L120 190L110 190L110 180L100 180L100 170L80 170L80 160L90 160L90 150L80 150L80 140L70 140z"/>
<path style="fill:#000000; stroke:none;" d="M230 140L230 150L240 150L240 140L230 140M70 150L70 160L80 160L80 150L70 150M50 160L50 180L80 180L80 170L60 170L60 160L50 160M170 170L170 180L180 180L180 170L170 170M290 170L290 180L310 180L310 200L320 200L320 190L330 190L330 200L340 200L340 190L330 190L330 180L310 180L310 170L290 170M240 180L240 190L250 190L250 180L240 180M90 190L90 200L80 200L80 210L70 210L70 220L90 220L90 210L100 210L100 190L90 190M290 190L290 210L300 210L300 190L290 190z"/>
<path style="fill:#ffffff; stroke:none;" d="M20 200L20 210L30 210L30 200L20 200z"/>
<path style="fill:#000000; stroke:none;" d="M110 210L110 220L120 220L120 210L110 210z"/>
<path style="fill:#ffffff; stroke:none;" d="M160 220L160 230L150 230L150 280L160 280L160 230L170 230L170 220L160 220M40 230L40 240L30 240L30 250L80 250L80 240L50 240L50 230L40 230z"/>
<path style="fill:#000000; stroke:none;" d="M120 250L120 260L130 260L130 250L120 250z"/>
<path style="fill:#ffffff; stroke:none;" d="M170 250L170 260L190 260L190 270L170 270L170 290L150 290L150 300L160 300L160 310L170 310L170 320L180 320L180 300L210 300L210 310L190 310L190 320L200 320L200 330L210 330L210 310L220 310L220 320L230 320L230 300L240 300L240 320L250 320L250 290L210 290L210 260L190 260L190 250L170 250M230 250L230 270L220 270L220 280L230 280L230 270L240 270L240 280L250 280L250 270L240 270L240 250L230 250M260 260L260 290L290 290L290 260L260 260M320 260L320 270L330 270L330 260L320 260z"/>
<path style="fill:#000000; stroke:none;" d="M10 270L10 340L80 340L80 270L10 270M190 270L190 290L200 290L200 270L190 270M270 270L270 280L280 280L280 270L270 270z"/>
<path style="fill:#ffffff; stroke:none;" d="M20 280L20 330L70 330L70 280L20 280z"/>
<path style="fill:#000000; stroke:none;" d="M30 290L30 320L60 320L60 290L30 290z"/>
<path style="fill:#ffffff; stroke:none;" d="M110 290L110 300L120 300L120 290L110 290z"/>
<path style="fill:#000000; stroke:none;" d="M170 290L170 300L180 300L180 290L170 290z"/>
<path style="fill:#ffffff; stroke:none;" d="M260 300L260 310L270 310L270 300L260 300M280 300L280 310L290 310L290 300L280 300z"/>
<path style="fill:#000000; stroke:none;" d="M330 300L330 320L340 320L340 300L330 300M320 330L320 340L330 340L330 330L320 330z"/>
</svg>
