<?xml version="1.0" standalone="yes"?>
<svg version="1.1" xmlns="http://www.w3.org/2000/svg" xmlns:xlink="http://www.w3.org/1999/xlink" xmlns:ev="http://www.w3.org/2001/xml-events" width="310" height="310">
<path style="fill:#000000; stroke:none;" d="M10 10L10 80L80 80L80 10L10 10M90 10L90 30L110 30L110 40L90 40L90 50L130 50L130 40L120 40L120 20L130 20L130 30L150 30L150 20L170 20L170 40L150 40L150 60L120 60L120 70L110 70L110 60L100 60L100 70L90 70L90 90L60 90L60 100L80 100L80 110L50 110L50 130L40 130L40 120L30 120L30 110L40 110L40 100L50 100L50 90L30 90L30 110L10 110L10 120L30 120L30 140L50 140L50 150L30 150L30 160L20 160L20 170L10 170L10 180L20 180L20 170L30 170L30 200L40 200L40 210L50 210L50 200L40 200L40 180L50 180L50 190L70 190L70 200L60 200L60 220L80 220L80 210L70 210L70 200L90 200L90 250L100 250L100 260L90 260L90 280L100 280L100 290L90 290L90 300L120 300L120 280L150 280L150 290L140 290L140 300L170 300L170 290L180 290L180 280L170 280L170 290L160 290L160 270L150 270L150 260L130 260L130 250L170 250L170 230L180 230L180 220L200 220L200 210L210 210L210 230L200 230L200 240L190 240L190 250L180 250L180 270L190 270L190 280L200 280L200 270L210 270L210 290L200 290L200 300L230 300L230 290L240 290L240 300L250 300L250 270L270 270L270 280L260 280L260 290L270 290L270 280L280 280L280 300L290 300L290 280L300 280L300 270L290 270L290 260L300 260L300 250L290 250L290 260L280 260L280 250L270 250L270 230L280 230L280 240L290 240L290 230L300 230L300 220L280 220L280 190L290 190L290 160L300 160L300 140L280 140L280 130L260 130L260 140L270 140L270 160L280 160L280 180L270 180L270 170L260 170L260 150L250 150L250 160L240 160L240 140L230 140L230 150L210 150L210 140L220 140L220 130L250 130L250 120L260 120L260 100L270 100L270 90L260 90L260 100L240 100L240 90L230 90L230 100L200 100L200 90L210 90L210 80L220 80L220 60L210 60L210 50L220 50L220 40L210 40L210 50L200 50L200 70L190 70L190 60L180 60L180 50L190 50L190 40L180 40L180 20L190 20L190 30L200 30L200 20L210 20L210 30L220 30L220 20L210 20L210 10L180 10L180 20L170 20L170 10L140 10L140 20L130 20L130 10L120 10L120 20L100 20L100 10L90 10M230 10L230 80L300 80L300 10L230 10M70 20L70 70L20 70L20 20L70 20M290 20L290 70L240 70L240 20L290 20M30 30L30 60L60 60L60 30L30 30M250 30L250 60L280 60L280 30L250 30M180 40L180 50L170 50L170 60L160 60L160 70L170 70L170 80L160 80L160 100L150 100L150 90L120 90L120 100L140 100L140 110L120 110L120 130L130 130L130 150L140 150L140 120L150 120L150 110L170 110L170 90L180 90L180 110L170 110L170 130L180 130L180 120L190 120L190 110L210 110L210 120L190 120L190 130L210 130L210 140L190 140L190 130L180 130L180 140L170 140L170 150L160 150L160 160L170 160L170 170L160 170L160 160L150 160L150 190L140 190L140 220L160 220L160 200L180 200L180 210L170 210L170 220L160 220L160 230L150 230L150 240L130 240L130 250L120 250L120 240L110 240L110 250L100 250L100 240L110 240L110 230L100 230L100 210L120 210L120 200L110 200L110 190L130 190L130 150L120 150L120 140L100 140L100 130L60 130L60 120L100 120L100 110L110 110L110 90L120 90L120 70L130 70L130 80L140 80L140 70L150 70L150 60L160 60L160 50L170 50L170 40L180 40M110 70L110 80L100 80L100 70L110 70M150 70L150 80L160 80L160 70L150 70M190 70L190 80L200 80L200 70L210 70L210 80L200 80L200 90L190 90L190 80L180 80L180 70L190 70M10 90L10 100L20 100L20 90L10 90M100 90L100 100L90 100L90 90L100 90M280 90L280 100L290 100L290 110L270 110L270 120L290 120L290 130L300 130L300 120L290 120L290 110L300 110L300 90L280 90M240 110L240 120L230 120L230 110L240 110M100 120L100 130L110 130L110 120L100 120M150 130L150 150L140 150L140 160L150 160L150 150L160 150L160 140L170 140L170 130L150 130M80 140L80 150L70 150L70 160L90 160L90 180L80 180L80 190L70 190L70 180L80 180L80 170L60 170L60 180L50 180L50 170L60 170L60 150L70 150L70 140L80 140M110 150L110 160L120 160L120 170L110 170L110 180L100 180L100 170L110 170L110 160L100 160L100 150L110 150M190 150L190 170L200 170L200 160L240 160L240 190L230 190L230 200L250 200L250 180L260 180L260 190L270 190L270 210L260 210L260 200L250 200L250 210L230 210L230 200L220 200L220 210L210 210L210 200L200 200L200 210L190 210L190 180L180 180L180 150L190 150M200 170L200 180L210 180L210 190L220 190L220 170L200 170M170 180L170 190L160 190L160 180L170 180M10 190L10 200L20 200L20 190L10 190M20 210L20 220L30 220L30 210L20 210M120 210L120 220L130 220L130 230L120 230L120 240L130 240L130 230L140 230L140 220L130 220L130 210L120 210M250 220L250 250L220 250L220 220L250 220M10 230L10 300L80 300L80 230L10 230M230 230L230 240L240 240L240 230L230 230M70 240L70 290L20 290L20 240L70 240M210 240L210 260L220 260L220 270L230 270L230 260L240 260L240 280L230 280L230 290L220 290L220 270L210 270L210 260L190 260L190 250L200 250L200 240L210 240M30 250L30 280L60 280L60 250L30 250M270 250L270 260L280 260L280 270L290 270L290 280L280 280L280 270L270 270L270 260L260 260L260 250L270 250M130 260L130 270L120 270L120 280L110 280L110 270L100 270L100 260L130 260z"/>
</svg>
